# xmcd CD database file
#
# Track frame offsets:
#	150
#	44972
#	87410
#	126601
#	176202
#
# Disc length: 3349 seconds
#
# Revision: 1
# Processed by: cddbd v1.5.2PL0 Copyright (c) Steve Scherf et al.
# Submitted via: CDex 1.77
#
DISCID=4f0d1305
DTITLE=Caterina Palazzi Sudoko Killer - Asperger
DYEAR=2018
DGENRE=Jazz
TTITLE0=Grimilde
TTITLE1=Jasper and Horace
TTITLE2=Maleficent
TTITLE3=Edgar the butler
TTITLE4=Medusa
EXTD=YEAR: 2018
EXTT0=
EXTT1=
EXTT2=
EXTT3=
EXTT4=
PLAYORDER=
